#!OML:ASF H:\Terrain\Patient Classification 1\Walking\liu\liu.ASF
:FULLY-SPECIFIED
:DEGREES
95
root 8.39751 16.4186 -16.3935 4.29596 -3.68402 3.45311
lowerback -3.80596 2.01386 -5.87027
upperback -1.12988 2.89583 0.826806
thorax 0.6328 1.4561 4.26101
lowerneck -21.2176 -3.49826 -11.4007
upperneck 18.6585 -3.56482 10.1248
head 9.81145 -1.31529 4.95907
rclavicle -6.75557e-015 -7.55382e-015
rhumerus -23.3549 17.799 -85.3038
rradius 43.4062
rwrist -18.6768
rhand -31.9268 -23.7532
rfingers 7.12502
rthumb -5.17803 -53.6699
lclavicle -6.75557e-015 -7.55382e-015
lhumerus -49.4002 21.03 64.9671
lradius 10.9435
lwrist -31.5107
lhand -12.0276 -26.4238
lfingers 7.12502
lthumb 14.0304 3.08268
rfemur -2.36989 -3.49755 14.7124
rtibia 57.1243
rfoot 18.1437 -10.7366
rtoes -13.6333
lfemur -28.6986 6.35963 -27.0143
ltibia 28.9301
lfoot -4.96399 1.10695
ltoes -2.80699
96
root 8.42675 16.4602 -16.2144 4.31729 -3.78476 3.76195
lowerback -3.85289 1.95724 -5.96672
upperback -1.10097 2.82921 0.682168
thorax 0.699381 1.41955 4.16604
lowerneck -21.5897 -3.35547 -11.1947
upperneck 18.9892 -3.38452 10.0115
head 9.96752 -1.22315 4.92188
rclavicle 1.4269e-014 3.18055e-015
rhumerus -23.6787 17.5052 -85.7241
rradius 42.8778
rwrist -18.722
rhand -31.8836 -23.2235
rfingers 7.12502
rthumb -5.13633 -53.1413
lclavicle 1.4269e-014 3.18055e-015
lhumerus -47.958 19.6269 67.1901
lradius 11.1829
lwrist -29.6522
lhand -12.827 -26.9821
lfingers 7.12502
lthumb 13.26 2.57609
rfemur -4.23212 -3.65484 14.483
rtibia 59.6377
rfoot 16.4608 -11.756
rtoes -13.1939
lfemur -27.5833 6.29936 -27.4102
ltibia 28.2131
lfoot -5.32905 1.31781
ltoes -3.19341
97
root 8.45485 16.5034 -16.0361 4.41062 -3.9701 3.77747
lowerback -3.97913 1.94577 -5.80607
upperback -1.14197 2.81471 0.664454
thorax 0.738248 1.41185 4.06148
lowerneck -21.993 -3.20811 -11.0626
upperneck 19.5154 -3.19135 9.93454
head 10.2012 -1.12767 4.92001
rclavicle -2.54848e-014 1.39149e-014
rhumerus -24.091 17.2493 -86.053
rradius 42.3126
rwrist -18.6494
rhand -32.0006 -22.7053
rfingers 7.12502
rthumb -5.24931 -52.6203
lclavicle -2.54848e-014 1.39149e-014
lhumerus -46.545 17.425 70.0323
lradius 11.7037
lwrist -26.746
lhand -13.573 -27.1757
lfingers 7.12502
lthumb 12.5408 2.42795
rfemur -6.14473 -3.74408 14.6297
rtibia 61.7156
rfoot 14.0092 -13.2314
rtoes -10.7309
lfemur -26.6607 6.28043 -27.4731
ltibia 27.7071
lfoot -5.84127 1.56948
ltoes -3.0344
98
root 8.47924 16.5455 -15.8599 4.54081 -4.10655 3.37163
lowerback -4.08619 1.98156 -5.25882
upperback -1.27534 2.84175 0.837188
thorax 0.67594 1.43022 3.93524
lowerneck -22.1763 -3.32145 -11.0457
upperneck 20.0813 -3.28672 9.60299
head 10.4439 -1.21041 4.79883
rclavicle -1.71436e-014 -3.57812e-015
rhumerus -24.6386 16.9095 -86.2218
rradius 41.6557
rwrist -18.2849
rhand -32.0033 -23.6927
rfingers 7.12502
rthumb -5.25189 -53.6076
lclavicle -1.71436e-014 -3.57812e-015
lhumerus -45.5676 15.755 72.2913
lradius 12.2731
lwrist -24.71
lhand -13.8366 -26.8486
lfingers 7.12502
lthumb 12.2867 2.77041
rfemur -8.02829 -3.99157 15.273
rtibia 63.3782
rfoot 12.0665 -14.2445
rtoes -8.95008
lfemur -25.8725 6.1365 -27.0511
ltibia 27.4088
lfoot -6.41384 1.87012
ltoes -3.35422
99
root 8.50067 16.5858 -15.6828 4.62049 -4.04666 2.8523
lowerback -4.16994 1.94847 -4.62502
upperback -1.30307 2.77387 1.01305
thorax 0.723691 1.39517 3.76179
lowerneck -22.8772 -3.50211 -10.792
upperneck 20.9459 -3.47192 9.10052
head 10.8975 -1.32878 4.57004
rclavicle 4.02306e-015 -1.59028e-015
rhumerus -25.0409 16.5213 -86.4438
rradius 41.0102
rwrist -17.8357
rhand -31.5852 -25.0606
rfingers 7.12502
rthumb -4.84818 -54.9851
lclavicle 4.02306e-015 -1.59028e-015
lhumerus -44.5412 15.4628 73.2839
lradius 12.4518
lwrist -24.7548
lhand -13.8203 -26.9896
lfingers 7.12502
lthumb 12.3024 2.62849
rfemur -9.72154 -4.29916 16.0888
rtibia 64.7257
rfoot 10.6468 -14.7452
rtoes -7.84558
lfemur -25.0558 5.8934 -26.504
ltibia 27.1802
lfoot -7.09013 2.10791
ltoes -3.99325
100
root 8.52062 16.6236 -15.5067 4.64421 -3.86689 2.41738
lowerback -4.18629 1.76991 -4.14439
upperback -1.29264 2.51539 1.15917
thorax 0.783894 1.26395 3.63382
lowerneck -21.7137 -3.10986 -11.3013
upperneck 20.1212 -3.07097 10.0545
head 10.3585 -1.08846 5.04215
rclavicle -4.35952e-014 -2.0276e-014
rhumerus -25.3395 16.5289 -86.8684
rradius 40.4047
rwrist -17.5404
rhand -31.5348 -26.7654
rfingers 7.12502
rthumb -4.79957 -56.691
lclavicle -4.35952e-014 -2.0276e-014
lhumerus -43.4178 14.5038 74.7014
lradius 12.7579
lwrist -23.8806
lhand -13.7393 -27.5849
lfingers 7.12502
lthumb 12.3805 2.02854
rfemur -11.2386 -4.27221 16.9706
rtibia 65.8131
rfoot 8.47488 -15.2343
rtoes -7.6462
lfemur -24.2048 5.6487 -26.0366
ltibia 26.9552
lfoot -7.98382 2.20955
ltoes -3.67157
101
root 8.54112 16.659 -15.3325 4.7095 -3.64335 2.02072
lowerback -4.32065 1.49299 -3.71371
upperback -1.22805 2.13191 1.32403
thorax 0.971097 1.0667 3.55225
lowerneck -21.1208 -2.77096 -11.4167
upperneck 19.681 -2.68641 10.4155
head 10.0498 -0.887341 5.23254
rclavicle -2.50034e-015 4.37326e-015
rhumerus -25.3561 16.9262 -87.3973
rradius 39.7276
rwrist -17.2522
rhand -31.7838 -29.5848
rfingers 7.12502
rthumb -5.04001 -59.5049
lclavicle -2.50034e-015 4.37326e-015
lhumerus -42.1344 12.1429 77.1806
lradius 13.4161
lwrist -21.0159
lhand -13.7717 -27.995
lfingers 7.12502
lthumb 12.3493 1.62028
rfemur -12.7252 -4.22167 17.8279
rtibia 66.6636
rfoot 6.06957 -15.4551
rtoes -7.85396
lfemur -23.3597 5.35209 -25.6227
ltibia 26.6481
lfoot -8.70593 2.34681
ltoes -3.71195
102
root 8.56454 16.6923 -15.1552 4.80795 -3.3892 1.72292
lowerback -4.52843 1.26132 -3.28563
upperback -1.18505 1.80958 1.42768
thorax 1.17034 0.900835 3.41063
lowerneck -21.2755 -2.59164 -11.1053
upperneck 19.8396 -2.47141 10.1771
head 10.0997 -0.789534 5.12992
rclavicle -1.46759e-014 -1.03368e-014
rhumerus -25.5474 16.9596 -87.7849
rradius 39.0544
rwrist -16.7073
rhand -31.7607 -30.6263
rfingers 7.12502
rthumb -5.01764 -60.5469
lclavicle -1.46759e-014 -1.03368e-014
lhumerus -40.833 9.68887 79.4701
lradius 14.0098
lwrist -18.263
lhand -13.8193 -28.3014
lfingers 7.12502
lthumb 12.3034 1.3166
rfemur -14.2636 -4.37839 18.4903
rtibia 67.3092
rfoot 4.24443 -15.5358
rtoes -6.19208
lfemur -22.4625 4.88644 -25.3076
ltibia 26.2023
lfoot -9.00364 2.61935
ltoes -3.19811
103
root 8.58864 16.7233 -14.9732 4.72838 -3.17349 1.61005
lowerback -4.50071 1.1057 -3.0499
upperback -1.17806 1.5899 1.47264
thorax 1.18562 0.79088 3.31269
lowerneck -21.7289 -2.55568 -10.6648
upperneck 20.4322 -2.45166 9.76553
head 10.3824 -0.789891 4.93098
rclavicle 6.07225e-015 1.27222e-014
rhumerus -26.2508 16.9674 -88.0302
rradius 38.5127
rwrist -16.5842
rhand -31.6589 -29.1828
rfingers 7.12502
rthumb -4.91935 -59.1057
lclavicle 6.07225e-015 1.27222e-014
lhumerus -39.9496 8.29398 80.8028
lradius 14.7717
lwrist -17.1652
lhand -13.4788 -28.4968
lfingers 7.12502
lthumb 12.6316 1.10124
rfemur -15.5946 -4.43435 18.9092
rtibia 67.7228
rfoot 2.00218 -15.4263
rtoes -5.5645
lfemur -21.3334 4.38305 -25.1809
ltibia 25.6766
lfoot -9.36113 2.85869
ltoes -2.17399
104
root 8.61021 16.7478 -14.7897 4.56122 -2.94709 1.63815
lowerback -4.35099 1.01996 -2.99072
upperback -1.18731 1.46893 1.47663
thorax 1.10351 0.732176 3.27359
lowerneck -21.9592 -2.56109 -10.342
upperneck 20.9868 -2.51058 9.50497
head 10.6256 -0.82229 4.79204
rclavicle -2.10044e-014 -1.51076e-014
rhumerus -27.1322 16.9718 -88.2813
rradius 38.2046
rwrist -16.8184
rhand -31.0769 -28.1851
rfingers 7.12502
rthumb -4.35743 -58.1202
lclavicle -2.10044e-014 -1.51076e-014
lhumerus -39.0874 7.11616 81.876
lradius 15.5266
lwrist -16.5691
lhand -13.2802 -28.5093
lfingers 7.12502
lthumb 12.8231 1.07687
rfemur -16.7559 -4.44843 19.1685
rtibia 67.937
rfoot -0.370694 -14.9066
rtoes -7.15368
lfemur -20.1339 3.98041 -25.2525
ltibia 25.156
lfoot -9.96687 3.00473
ltoes -3.25406
105
root 8.62933 16.7621 -14.6098 4.59779 -2.56501 1.78022
lowerback -4.43598 0.906593 -3.03468
upperback -1.27066 1.32159 1.4753
thorax 1.07584 0.660223 3.2906
lowerneck -21.999 -2.56354 -10.4077
upperneck 21.4832 -2.53932 9.59553
head 10.8203 -0.833517 4.85149
rclavicle -2.84511e-015 -3.97569e-016
rhumerus -27.9226 16.5918 -88.3632
rradius 37.8941
rwrist -16.304
rhand -30.3188 -28.1235
rfingers 7.12502
rthumb -3.62531 -58.0725
lclavicle -2.84511e-015 -3.97569e-016
lhumerus -37.8622 4.74944 83.6086
lradius 15.7526
lwrist -14.6062
lhand -15.3106 -29.886
lfingers 7.12502
lthumb 10.8651 -0.187103
rfemur -18.1225 -4.6936 19.3418
rtibia 68.0138
rfoot -2.11359 -14.2185
rtoes -9.15795
lfemur -19.2106 3.49017 -25.4751
ltibia 24.625
lfoot -10.5276 3.14102
ltoes -3.9
